<svg width="1000" height="265" viewBox="0 0 1000 265" fill="none" xmlns="http://www.w3.org/2000/svg">
<path d="M957.304 80.2765C968.071 92.3355 970.461 110.241 964.292 133.263L929.826 261.893H876.862L879.995 250.2C874 254.219 868.298 257.143 862.793 259.335C854.345 262.624 844.496 264.086 833.524 264.086C812.339 264.086 797.161 258.604 788.469 247.276C779.679 236.313 777.836 220.6 783.025 201.232C787.823 183.327 798.171 168.71 813.495 158.112C829.198 147.515 847.971 142.399 869.913 142.399H907.745L910.78 131.071C915.676 112.799 909.227 104.395 890.311 104.395C882.367 104.395 875.824 106.222 870.305 109.876C865.164 113.53 861.719 117.915 860.055 124.128L858.782 128.878H807.709L809.08 123.762C814.172 104.76 825.374 89.7775 842.309 78.8148C858.866 67.852 878.872 62.3706 901.95 62.3706C927.675 62.3706 946.159 68.2174 957.304 80.2765ZM881.561 213.291C887.752 208.541 892.079 200.867 894.82 190.635L897.464 180.769H867.199C849.418 180.769 839.809 186.981 836.284 200.136C832.563 214.022 838.843 220.235 855.867 220.235C867.217 220.235 875.847 217.677 881.561 213.291Z" fill="#00BFFF"/>
<path d="M683.251 64.5632L680.02 76.6222C685.918 72.968 691.619 70.0445 698.357 67.4866C707.94 64.1977 717.509 62.3706 726.589 62.3706C747.774 62.3706 762.658 68.9483 771.337 81.7382C779.54 94.8935 780.515 112.434 774.64 134.36L752.114 218.426C745.682 242.432 720.32 261.893 695.467 261.893H685.99L718.693 139.841C721.337 129.974 720.647 122.666 717.478 117.55C713.931 112.434 708.185 109.876 699.862 109.876C691.917 109.876 684.422 112.434 678.133 117.55C671.466 122.666 666.86 129.974 664.216 139.841L643.159 218.426C636.727 242.432 611.365 261.893 586.512 261.893H577.034L629.909 64.5632H683.251Z" fill="#00BFFF"/>
<path d="M611.669 2.44104L607.782 16.9489C603.494 32.9529 586.586 45.9267 570.017 45.9267H544.783L548.67 31.4188C552.959 15.4148 569.867 2.44104 586.435 2.44104H611.669ZM594.645 64.5634L553.418 218.427C546.985 242.433 521.624 261.893 496.771 261.893H487.672L528.899 108.03C535.332 84.0241 560.693 64.5634 585.546 64.5634H594.645Z" fill="#00BFFF"/>
<path d="M330.46 108.03C336.893 84.0242 362.254 64.5635 387.107 64.5635H396.585L365.839 179.307C362.412 192.097 361.758 201.598 363.877 207.81C365.715 213.657 372.12 216.581 383.091 216.581C394.44 216.581 401.935 214.023 406.809 208.541C412.159 202.694 416.694 192.828 420.317 179.307L439.416 108.03C445.848 84.0241 471.21 64.5635 496.062 64.5635H505.54L474.207 181.5C466.863 208.907 454.57 229.371 437.23 243.257C419.89 257.143 397.6 264.086 370.362 264.086C316.262 264.086 296.185 235.948 310.774 181.5L330.46 108.03Z" fill="#00BFFF"/>
<path d="M262.176 218.175C255.744 242.181 230.382 261.641 205.53 261.641H195.293L230.346 130.821L253.753 43.4666C260.185 19.4607 285.547 0 310.4 0H320.636L262.176 218.175Z" fill="#00BFFF"/>
<path d="M98.7399 108.78H198.237L185.117 157.747H85.6192L57.7133 261.893H0.587476L70.1075 2.44104H243.377L230.256 51.4081H114.113L98.7399 108.78Z" fill="#00BFFF"/>
</svg>
