<svg width="500" height="133" viewBox="0 0 500 133" fill="none" xmlns="http://www.w3.org/2000/svg">
<path d="M478.652 40.1382C484.035 46.1678 485.23 55.1207 482.146 66.6316L464.913 130.947H438.431L439.997 125.1C437 127.11 434.149 128.571 431.396 129.668C427.173 131.312 422.248 132.043 416.762 132.043C406.169 132.043 398.581 129.302 394.234 123.638C389.839 118.157 388.918 110.3 391.513 100.616C393.912 91.6633 399.086 84.3548 406.748 79.0561C414.599 73.7574 423.986 71.1994 434.957 71.1994H453.873L455.39 65.5353C457.838 56.3997 454.614 52.1973 445.156 52.1973C441.183 52.1973 437.912 53.1109 435.152 54.938C432.582 56.7651 430.86 58.9577 430.027 62.0638L429.391 64.4391H403.855L404.54 61.8811C407.086 52.38 412.687 44.8888 421.155 39.4074C429.433 33.926 439.436 31.1853 450.975 31.1853C463.838 31.1853 473.08 34.1087 478.652 40.1382ZM440.781 106.646C443.876 104.27 446.039 100.434 447.41 95.3176L448.732 90.3843H433.599C424.709 90.3843 419.904 93.4904 418.142 100.068C416.281 107.011 419.421 110.117 427.934 110.117C433.608 110.117 437.923 108.838 440.781 106.646Z" fill="#F3F3F3"/>
<path d="M341.626 32.2816L340.01 38.3111C342.959 36.484 345.809 35.0223 349.179 33.7433C353.97 32.0989 358.755 31.1853 363.294 31.1853C373.887 31.1853 381.329 34.4741 385.669 40.8691C389.77 47.4468 390.257 56.217 387.32 67.1798L377.284 104.636C373.39 119.167 358.038 130.947 342.995 130.947L359.347 69.9205C360.669 64.9872 360.324 61.3329 358.739 58.775C356.965 56.217 354.092 54.938 349.931 54.938C345.959 54.938 342.211 56.217 339.067 58.775C335.733 61.3329 333.43 64.9872 332.108 69.9205L322.806 104.636C318.912 119.167 303.561 130.947 288.517 130.947L314.954 32.2816H341.626Z" fill="#F3F3F3"/>
<path d="M305.835 1.2207C302.617 13.2289 289.931 22.9635 277.499 22.9635H272.392C275.609 10.9553 288.296 1.2207 300.727 1.2207H305.835ZM297.323 32.2819L277.886 104.819C274.02 119.249 258.775 130.947 243.836 130.947L263.272 58.4098C267.139 43.9798 282.384 32.2819 297.323 32.2819Z" fill="#F3F3F3"/>
<path d="M164.004 58.5924C167.897 44.0614 183.249 32.2817 198.292 32.2817L182.92 89.6536C181.206 96.0486 180.879 100.799 181.938 103.905C182.857 106.829 186.06 108.29 191.545 108.29C197.22 108.29 200.968 107.011 203.404 104.271C206.079 101.347 208.347 96.414 210.158 89.6536L218.481 58.5924C222.375 44.0614 237.726 32.2817 252.77 32.2817L237.103 90.7499C233.432 104.453 227.285 114.685 218.615 121.628C209.945 128.571 198.8 132.043 185.181 132.043C158.131 132.043 148.092 117.974 155.387 90.7499L164.004 58.5924Z" fill="#F3F3F3"/>
<path d="M132.413 104.143C128.465 118.877 112.9 130.821 97.6465 130.821L115.173 65.4103L125.552 26.6772C129.499 11.9438 145.065 0 160.318 0L132.413 104.143Z" fill="#F3F3F3"/>
<path d="M49.37 54.3902H99.1186L92.5583 78.8737H42.8096L28.8567 130.947H0.293738L35.0538 1.2207H121.688L115.128 25.7042H57.0563L49.37 54.3902Z" fill="#F3F3F3"/>
</svg>
