<svg width="1024" height="271" viewBox="0 0 1024 271" fill="none" xmlns="http://www.w3.org/2000/svg">
<path d="M980.28 82.2031C991.304 94.5515 993.752 112.887 987.435 136.462L952.142 268.179H897.906L901.115 256.204C894.976 260.32 889.137 263.314 883.5 265.559C874.849 268.927 864.763 270.424 853.529 270.424C831.835 270.424 816.293 264.811 807.392 253.211C798.391 241.985 796.504 225.894 801.818 206.062C806.731 187.726 817.327 172.759 833.019 161.907C849.098 151.055 868.322 145.816 890.791 145.816H929.531L932.639 134.216C937.652 115.507 931.048 106.9 911.679 106.9C903.543 106.9 896.844 108.771 891.192 112.513C885.928 116.255 882.401 120.745 880.696 127.107L879.393 131.971H827.094L828.498 126.732C833.712 107.274 845.183 91.9322 862.525 80.7063C879.479 69.4804 899.965 63.8675 923.597 63.8675C949.939 63.8675 968.867 69.8546 980.28 82.2031ZM902.719 218.41C909.059 213.546 913.488 205.688 916.296 195.21L919.003 185.107H888.011C869.804 185.107 859.964 191.468 856.354 204.939C852.544 219.159 858.975 225.52 876.408 225.52C888.03 225.52 896.867 222.901 902.719 218.41Z" fill="#0D0D0D"/>
<path d="M699.649 66.1126L696.341 78.4611C702.38 74.7191 708.218 71.7256 715.118 69.1062C724.93 65.7384 734.729 63.8675 744.027 63.8675C765.721 63.8675 780.962 70.603 789.849 83.6999C798.249 97.1709 799.247 115.132 793.231 137.584L769.885 224.712C763.453 248.718 738.091 268.179 713.238 268.179H702.453L735.942 143.197C738.649 133.094 737.943 125.61 734.698 120.371C731.065 115.132 725.181 112.513 716.659 112.513C708.523 112.513 700.848 115.132 694.408 120.371C687.581 125.61 682.864 133.094 680.157 143.197L658.315 224.712C651.883 248.718 626.521 268.179 601.668 268.179H590.883L645.027 66.1126H699.649Z" fill="#0D0D0D"/>
<path d="M626.349 2.49979L622.182 18.0514C617.894 34.0553 600.986 47.0291 584.418 47.0291H557.858L562.025 31.4775C566.313 15.4736 583.221 2.49979 599.789 2.49979H626.349ZM608.917 66.1131L566.42 224.712C559.988 248.718 534.626 268.179 509.773 268.179H499.376L541.872 109.58C548.305 85.5738 573.666 66.1131 598.519 66.1131H608.917Z" fill="#0D0D0D"/>
<path d="M338.671 109.58C345.103 85.5737 370.465 66.113 395.318 66.113H406.103L374.619 183.611C371.11 196.707 370.44 206.437 372.61 212.798C374.492 218.785 381.05 221.779 392.285 221.779C403.907 221.779 411.582 219.159 416.572 213.546C422.051 207.559 426.695 197.456 430.405 183.611L450.241 109.58C456.673 85.5737 482.035 66.113 506.888 66.113H517.673L485.588 185.856C478.068 213.92 465.48 234.875 447.724 249.095C429.967 263.314 407.143 270.424 379.25 270.424C323.853 270.424 303.293 241.611 318.233 185.856L338.671 109.58Z" fill="#0D0D0D"/>
<path d="M268.189 224.454C261.757 248.46 236.395 267.921 211.542 267.921H199.98L235.875 133.96L260.122 43.4666C266.555 19.4607 291.916 0 316.769 0H328.331L268.189 224.454Z" fill="#0D0D0D"/>
<path d="M101.11 111.391H202.995L189.559 161.533H87.6741L59.0984 268.179H0.601579L71.7901 2.49979H249.218L235.782 52.6421H116.851L101.11 111.391Z" fill="#0D0D0D"/>
</svg>
